<?xml version="1.0" standalone="no"?>
<svg xmlns:xlink="http://www.w3.org/1999/xlink" id="wave" style="transform:rotate(0deg); transition: 0.3s" viewBox="0 0 1440 180" version="1.1" xmlns="http://www.w3.org/2000/svg"><defs><linearGradient id="sw-gradient-0" x1="0" x2="0" y1="1" y2="0"><stop stop-color="rgba(243, 106, 62, 1)" offset="0%"/><stop stop-color="rgba(255, 179, 11, 1)" offset="100%"/></linearGradient></defs><path style="transform:translate(0, 0px); opacity:1" fill="url(#sw-gradient-0)" d="M0,108L60,96C120,84,240,60,360,63C480,66,600,96,720,108C840,120,960,114,1080,96C1200,78,1320,48,1440,57C1560,66,1680,114,1800,132C1920,150,2040,138,2160,129C2280,120,2400,114,2520,114C2640,114,2760,120,2880,111C3000,102,3120,78,3240,72C3360,66,3480,78,3600,78C3720,78,3840,66,3960,54C4080,42,4200,30,4320,48C4440,66,4560,114,4680,111C4800,108,4920,54,5040,33C5160,12,5280,24,5400,51C5520,78,5640,120,5760,126C5880,132,6000,102,6120,93C6240,84,6360,96,6480,96C6600,96,6720,84,6840,72C6960,60,7080,48,7200,54C7320,60,7440,84,7560,99C7680,114,7800,120,7920,129C8040,138,8160,150,8280,156C8400,162,8520,162,8580,162L8640,162L8640,180L8580,180C8520,180,8400,180,8280,180C8160,180,8040,180,7920,180C7800,180,7680,180,7560,180C7440,180,7320,180,7200,180C7080,180,6960,180,6840,180C6720,180,6600,180,6480,180C6360,180,6240,180,6120,180C6000,180,5880,180,5760,180C5640,180,5520,180,5400,180C5280,180,5160,180,5040,180C4920,180,4800,180,4680,180C4560,180,4440,180,4320,180C4200,180,4080,180,3960,180C3840,180,3720,180,3600,180C3480,180,3360,180,3240,180C3120,180,3000,180,2880,180C2760,180,2640,180,2520,180C2400,180,2280,180,2160,180C2040,180,1920,180,1800,180C1680,180,1560,180,1440,180C1320,180,1200,180,1080,180C960,180,840,180,720,180C600,180,480,180,360,180C240,180,120,180,60,180L0,180Z"/></svg>